<?xml version="1.0" encoding="UTF-8" standalone="no"?>
<!DOCTYPE svg PUBLIC "-//W3C//DTD SVG 1.1//EN" "http://www.w3.org/Graphics/SVG/1.1/DTD/svg11.dtd">
<svg width="100%" height="100%" viewBox="0 0 702 220" version="1.1" xmlns="http://www.w3.org/2000/svg" xmlns:xlink="http://www.w3.org/1999/xlink" xml:space="preserve" xmlns:serif="http://www.serif.com/" style="fill-rule:evenodd;clip-rule:evenodd;stroke-linejoin:round;stroke-miterlimit:2;">
    <g transform="matrix(1,0,0,1,-960,-224.805)">
        <g transform="matrix(0.97525,0,0,0.97525,308.236,35.6064)">
            <path d="M858,362L858,316.764C858,310.819 862.819,306 868.764,306C868.766,306 868.767,306 868.769,306C874.714,306 879.533,310.819 879.533,316.764C879.533,333.031 879.533,362 879.533,362C879.533,380.866 895.134,396.16 914,396.16C932.866,396.16 948.467,380.866 948.467,362L948.467,316.764C948.467,310.819 953.286,306 959.231,306C959.233,306 959.234,306 959.236,306C965.181,306 970,310.819 970,316.764C970,333.031 970,362 970,362C970,392.928 944.928,418 914,418C883.072,418 858,392.928 858,362Z" style="fill:white;"/>
        </g>
        <g transform="matrix(1,0,0,1,203.455,0.915)">
            <path d="M1199.61,334.033C1229.76,334.033 1254.23,358.505 1254.23,388.647C1254.23,418.789 1229.76,443.261 1199.61,443.261C1169.47,443.261 1145,418.789 1145,388.647C1145,358.505 1169.47,334.033 1199.61,334.033ZM1199.61,355.332C1218,355.332 1232.93,370.26 1232.93,388.647C1232.93,407.034 1218,421.961 1199.61,421.961C1181.23,421.961 1166.3,407.034 1166.3,388.647C1166.3,370.26 1181.23,355.332 1199.61,355.332Z" style="fill:white;"/>
        </g>
        <g transform="matrix(1,0,0,1,406.911,0.915)">
            <path d="M1232.93,431.914C1223.71,439.028 1212.15,443.261 1199.61,443.261C1169.47,443.261 1145,418.789 1145,388.647C1145,358.505 1169.47,334.033 1199.61,334.033C1229.76,334.033 1254.23,358.505 1254.23,388.647L1254.23,432.613C1254.23,438.494 1249.46,443.261 1243.58,443.261L1243.58,443.261C1237.7,443.261 1232.93,438.494 1232.93,432.613L1232.93,431.914ZM1232.93,388.647C1232.93,370.26 1218,355.332 1199.61,355.332C1181.23,355.332 1166.3,370.26 1166.3,388.647C1166.3,407.034 1181.23,421.961 1199.61,421.961C1218,421.961 1232.93,407.034 1232.93,388.647Z" style="fill:white;"/>
        </g>
        <g transform="matrix(1,0,0,1,30.7634,0)">
            <path d="M1233,432.649L1233,344.645C1233,338.784 1237.75,334.033 1243.61,334.033L1243.62,334.033C1249.48,334.033 1254.23,338.784 1254.23,344.645L1254.23,345.337C1263.46,338.197 1275.04,333.948 1287.61,333.948C1296.12,333.948 1304.44,335.933 1311.95,339.672C1314.8,341.088 1316.83,343.728 1317.48,346.835C1318.12,349.942 1317.31,353.173 1315.27,355.604C1315.26,355.611 1315.26,355.617 1315.25,355.623C1311.99,359.51 1306.51,360.69 1301.94,358.491C1297.5,356.368 1292.61,355.247 1287.61,355.247C1269.21,355.247 1254.3,370.163 1254.3,388.562L1254.23,388.562L1254.23,432.649C1254.23,438.51 1249.48,443.261 1243.62,443.261L1243.61,443.261C1237.75,443.261 1233,438.51 1233,432.649Z" style="fill:white;"/>
        </g>
        <g transform="matrix(1,0,0,1,234.219,0)">
            <path d="M1233,432.649L1233,344.645C1233,338.784 1237.75,334.033 1243.61,334.033L1243.62,334.033C1249.48,334.033 1254.23,338.784 1254.23,344.645L1254.23,345.337C1263.46,338.197 1275.04,333.948 1287.61,333.948C1296.12,333.948 1304.44,335.933 1311.95,339.672C1314.8,341.088 1316.83,343.728 1317.48,346.835C1318.12,349.942 1317.31,353.173 1315.27,355.604C1315.26,355.611 1315.26,355.617 1315.25,355.623C1311.99,359.51 1306.51,360.69 1301.94,358.491C1297.5,356.368 1292.61,355.247 1287.61,355.247C1269.21,355.247 1254.3,370.163 1254.3,388.562L1254.23,388.562L1254.23,432.649C1254.23,438.51 1249.48,443.261 1243.62,443.261L1243.61,443.261C1237.75,443.261 1233,438.51 1233,432.649Z" style="fill:white;"/>
        </g>
        <g transform="matrix(0.533867,0.215696,-0.399419,0.988597,675.383,-186.883)">
            <path d="M1043.31,356.808C1000.67,349.889 955.545,362.429 941.185,385.184L914.119,428.075C913.835,428.525 913.571,428.98 913.327,429.437C911.318,433.314 906.95,436.954 902.145,439.495C902.068,439.536 901.99,439.577 901.912,439.617C896.469,442.43 890.589,443.261 882.892,443.261C866.862,443.261 855.95,436.545 855.95,428.261L855.95,239.635C855.95,233.139 863.941,227.607 875.12,225.522C885.554,223.569 897.694,224.814 905.901,229.206L1114.25,340.705C1119.6,343.566 1122.52,347.408 1122.39,351.385C1122.26,355.362 1119.07,359.149 1113.53,361.912L1113.53,361.913C1103.31,367.012 1087.73,367.463 1076.56,363.356C1072.87,361.995 1068.81,360.948 1064.53,360.254C1059.28,359.399 1051.81,358.187 1043.31,356.808ZM992.624,321.708C992.624,321.708 995.62,322.366 998.169,322.759C1008.85,324.405 1009.96,325.157 1015.45,322.417C1018.09,321.101 1019.61,319.298 1019.67,317.404C1019.73,315.51 1018.34,313.681 1015.79,312.318L916.586,259.227C912.678,257.136 906.898,256.543 901.93,257.473C896.607,258.466 892.802,261.1 892.802,264.193L892.802,354.009C892.802,357.953 897.998,361.151 905.63,361.151C909.295,361.151 912.095,360.756 914.687,359.416C914.724,359.397 914.761,359.378 914.798,359.358C917.066,358.159 919.129,356.445 920.088,354.616C920.199,354.412 920.317,354.21 920.443,354.01L929.813,339.161C938.645,325.165 966.401,317.453 992.624,321.708Z" style="fill:white;"/>
        </g>
    </g>
</svg>
