<?xml version="1.0" encoding="UTF-8" standalone="no"?>
<!DOCTYPE svg PUBLIC "-//W3C//DTD SVG 1.1//EN" "http://www.w3.org/Graphics/SVG/1.1/DTD/svg11.dtd">
<svg width="100%" height="100%" viewBox="0 0 629 219" version="1.1" xmlns="http://www.w3.org/2000/svg" xmlns:xlink="http://www.w3.org/1999/xlink" xml:space="preserve" xmlns:serif="http://www.serif.com/" style="fill-rule:evenodd;clip-rule:evenodd;stroke-linejoin:round;stroke-miterlimit:2;">
    <g transform="matrix(1,0,0,1,-507.52,-433.635)">
        <g transform="matrix(1,0,0,1,178.453,1.10276e-11)">
            <path d="M689.569,563.791C699.243,553.17 713.182,546.5 728.667,546.5C757.852,546.5 781.547,570.195 781.547,599.38C781.547,628.566 757.852,652.261 728.667,652.261C699.481,652.261 675.786,628.566 675.786,599.38C675.786,588.512 679.072,578.405 684.703,570C686.171,567.809 687.799,565.734 689.569,563.791ZM728.667,575.584C715.533,575.584 704.87,586.247 704.87,599.38C704.87,612.514 715.533,623.177 728.667,623.177C741.8,623.177 752.463,612.514 752.463,599.38C752.463,586.247 741.8,575.584 728.667,575.584Z" style="fill:white;"/>
        </g>
        <g transform="matrix(1,0,0,1,354.48,1.10276e-11)">
            <path d="M758.609,642.962C750.094,648.826 739.778,652.261 728.667,652.261C699.481,652.261 675.786,628.566 675.786,599.38C675.786,588.512 679.072,578.405 684.703,570C686.171,567.809 687.799,565.734 689.569,563.791C699.243,553.17 713.182,546.5 728.667,546.5C757.852,546.5 781.547,570.195 781.547,599.38L781.547,649.269C781.547,650.062 781.232,650.823 780.671,651.384C780.11,651.946 779.349,652.261 778.555,652.261L778.552,652.261C770.546,652.261 763.384,648.647 758.609,642.962ZM728.667,575.584C715.533,575.584 704.87,586.247 704.87,599.38C704.87,612.514 715.533,623.177 728.667,623.177C741.8,623.177 752.463,612.514 752.463,599.38C752.463,586.247 741.8,575.584 728.667,575.584Z" style="fill:white;"/>
        </g>
        <g transform="matrix(0.796043,0,0,1,187.372,-2.95586e-12)">
            <path d="M845.594,570L798.853,570C795.524,570 792.331,571.053 789.977,572.927C787.623,574.801 786.3,577.342 786.3,579.993L786.3,628.257C786.3,641.514 772.8,652.261 756.146,652.261L756.143,652.261C755.146,652.261 754.189,651.945 753.484,651.384C752.778,650.822 752.382,650.061 752.382,649.267L752.382,573.5C752.382,558.588 767.568,546.5 786.3,546.5L826.383,546.5C839.206,546.5 849.829,554 851.706,563.791C849.482,565.734 847.438,567.809 845.594,570Z" style="fill:white;"/>
        </g>
        <g transform="matrix(0.796043,0,0,1,364.055,-2.95586e-12)">
            <path d="M845.594,570L798.853,570C795.524,570 792.331,571.053 789.977,572.927C787.623,574.801 786.3,577.342 786.3,579.993L786.3,628.257C786.3,641.514 772.8,652.261 756.146,652.261L756.143,652.261C755.146,652.261 754.189,651.945 753.484,651.384C752.778,650.822 752.382,650.061 752.382,649.267L752.382,573.5C752.382,558.588 767.568,546.5 786.3,546.5L826.383,546.5C839.206,546.5 849.829,554 851.706,563.791C849.482,565.734 847.438,567.809 845.594,570Z" style="fill:white;"/>
        </g>
        <g transform="matrix(1,0,0,1.172,-22,-102.789)">
            <path d="M696.017,597.604L696.017,577.027C696.017,570.92 698.86,565.063 703.921,560.745C708.982,556.426 715.847,554 723.005,554L723.008,554C724.66,554 726,555.143 726,556.553L726,597.604C726,609.194 737.085,618.59 750.667,618.59C764.249,618.59 775.333,609.194 775.333,597.604L775.333,577.02C775.333,570.915 778.176,565.06 783.236,560.743C788.295,556.425 795.158,554 802.314,554C803.11,554 803.874,554.27 804.437,554.75C805,555.231 805.317,555.882 805.317,556.561L805.317,597.604C805.317,623.36 780.849,644.24 750.667,644.24C734.76,644.24 720.44,638.44 710.453,629.184C701.49,620.877 696.017,609.786 696.017,597.604Z" style="fill:white;"/>
        </g>
        <g transform="matrix(0.441516,-0.178384,0.467332,1.15669,139.476,10.0152)">
            <path d="M571.679,629.02C567.762,633.959 557.712,637 543.5,637C526.115,637 512,631.612 512,624.976L512,578.177C512,574.328 507.173,570.712 499.015,568.449C490.858,566.187 480.356,565.552 470.766,566.742L263.649,592.429C259.547,593.026 255.175,593.287 250.833,593.206C248.496,593.163 246.195,593.021 243.972,592.786C242.816,592.664 241.677,592.517 240.561,592.345C232.232,591.061 225.391,588.433 222.401,584.921C220.02,582.124 220.478,579.233 223.167,576.704C224.572,575.37 226.631,574.112 229.351,572.998L518.712,454.554C528.083,450.718 542.507,449.748 554.42,451.743C566.43,453.44 575,457.853 575,463.024L575,596.298L574.662,596.617C563.43,607.228 561.886,619.093 571.679,629.02ZM512,502.737C512,501.09 509.362,499.611 505.348,499.008C501.335,498.404 496.763,498.799 493.821,500.003L386.111,544.092C382.846,545.428 382.363,547.438 384.934,548.979C387.506,550.52 392.482,551.202 397.035,550.637L490.234,539.078C503.213,537.469 512,532.852 512,527.643L512,502.737Z" style="fill:white;"/>
        </g>
    </g>
</svg>
